<svg width="24" height="24" fill="none" xmlns="http://www.w3.org/2000/svg"><path d="M24.0064 12.1333C23.9964 11.7767 23.7531 11.21 23.1431 11.21C22.9831 11.21 22.7831 11.21 22.5697 11.2067C22.0797 11.2033 21.5231 11.2 21.1764 11.21C20.4064 11.21 19.5564 11.7767 19.4397 13.09L19.4497 13.0933C19.4464 13.1133 19.4431 13.13 19.4397 13.1533C19.2897 14.8233 18.5064 16.4833 17.2364 17.7C16.2997 18.5967 15.1597 19.2067 13.9297 19.5033C13.7564 19.5433 13.5797 19.58 13.4064 19.61C13.3164 19.6233 13.2231 19.64 13.1331 19.65C12.9797 19.67 12.8297 19.68 12.6764 19.69C12.5564 19.6967 12.4331 19.7067 12.3131 19.7067C12.2497 19.7067 12.1864 19.7033 12.1231 19.7C11.8964 19.6967 11.6697 19.6867 11.4464 19.66C11.4264 19.6567 11.4031 19.6533 11.3831 19.65C11.1297 19.62 10.8797 19.5767 10.6331 19.52C10.6197 19.5167 10.6031 19.5133 10.5897 19.51C10.3464 19.4533 10.1031 19.38 9.86972 19.2967C9.82305 19.28 9.77972 19.26 9.73638 19.2433C9.53972 19.17 9.34638 19.09 9.15638 18.9967C9.03972 18.94 8.92972 18.8767 8.81638 18.8133C8.70638 18.7533 8.59305 18.6933 8.48638 18.6267C8.26972 18.49 8.05638 18.3433 7.85305 18.18C7.44305 17.8533 7.07638 17.49 6.74972 17.1C6.71638 17.06 6.67972 17.0233 6.64972 16.9833C6.54638 16.8567 6.45972 16.7233 6.36638 16.5933C6.29305 16.49 6.21638 16.3833 6.14972 16.2767C6.06638 16.1433 5.99305 16.0067 5.91972 15.87C5.86638 15.77 5.80972 15.6733 5.76305 15.5733C5.67972 15.3967 5.60305 15.2167 5.53305 15.0333C5.50972 14.9733 5.48305 14.9133 5.46305 14.8533C5.38638 14.64 5.32305 14.42 5.26972 14.1967C5.25972 14.16 5.24972 14.1267 5.24305 14.09C5.19305 13.8667 5.15305 13.6367 5.12305 13.4067C5.11638 13.3633 5.10972 13.3167 5.10305 13.2733C5.07972 13.0733 5.07305 12.87 5.06972 12.67C5.06638 12.5767 5.06305 12.4833 5.06305 12.3867C5.06305 12.2867 5.07305 12.1833 5.07638 12.0833C5.08638 11.9 5.10305 11.72 5.12638 11.5367C5.13305 11.4733 5.14305 11.4133 5.15305 11.35C5.18638 11.15 5.22638 10.9533 5.27638 10.7533C5.57638 9.54667 6.17972 8.43 7.06305 7.51C8.27972 6.24333 9.93638 5.45667 11.6097 5.30667C12.9197 5.19 13.4897 4.34 13.4897 3.57C13.4997 3.22333 13.4964 2.66667 13.4931 2.17667C13.4931 1.96 13.4897 1.76333 13.4897 1.60333C13.4897 0.993334 12.9231 0.75 12.5664 0.74C11.8597 0.72 11.1431 0.766667 10.4364 0.873334C7.90305 1.26 5.51972 2.51333 3.72972 4.40333C1.93972 6.29 0.813051 8.73667 0.559717 11.29C0.226384 14.65 1.28305 17.8733 3.53972 20.3633C3.64638 20.48 3.75638 20.59 3.86305 20.7033C3.89305 20.7367 3.92305 20.77 3.95638 20.8C3.98638 20.83 4.01972 20.86 4.05305 20.8933C4.16638 21.0033 4.27638 21.1133 4.39305 21.2167C6.88305 23.4733 10.1064 24.53 13.4664 24.1967C15.1797 24.0267 16.8364 23.4567 18.3164 22.5633C18.3597 22.54 18.3997 22.5133 18.4397 22.4867C18.673 22.3433 18.9031 22.19 19.1264 22.0267C19.2264 21.9567 19.3231 21.8833 19.4197 21.81C19.5231 21.73 19.6297 21.65 19.7331 21.5633C19.9197 21.41 20.1031 21.25 20.2797 21.0867C20.303 21.0667 20.3264 21.0467 20.3497 21.0267C20.3797 20.9967 20.4097 20.9633 20.4397 20.9333C20.5131 20.8633 20.5831 20.7967 20.6531 20.7267L20.6397 20.7233C22.3597 18.97 23.5097 16.7167 23.8764 14.3167C23.9831 13.61 24.0297 12.8933 24.0097 12.1867C24.0097 12.1833 24.0097 12.18 24.0097 12.1767C24.0031 12.1667 24.0064 12.15 24.0064 12.1333Z" fill="#fff"/><path d="M18.4531 1.48C17.3097 2.35667 16.8431 3.86 17.2931 5.23C17.4197 5.60667 17.3231 6.02 17.0464 6.30333C16.2331 7.38333 15.2731 8.34667 14.1931 9.16333C13.9097 9.44 13.4931 9.53667 13.1197 9.41C11.3431 8.82333 9.42638 9.79 8.83972 11.5667C8.25305 13.3433 9.21972 15.26 10.9964 15.8467C12.7731 16.4333 14.6897 15.4667 15.2764 13.69C15.5031 12.9967 15.5031 12.25 15.2731 11.56C15.1497 11.19 15.2497 10.7767 15.5264 10.5C16.3397 9.42 17.2997 8.46333 18.3797 7.65C18.6564 7.37 19.0697 7.27333 19.4431 7.39667C21.2197 7.99 23.1364 7.03 23.7297 5.25667C24.3231 3.48 23.3631 1.56333 21.5897 0.97C20.5231 0.613333 19.3497 0.81 18.4564 1.49333L18.4531 1.48Z" fill="#FF6C37"/></svg>